TITLE ""
FILE "P1Q_t_0070-0079.mp3" MP3
  TRACK 01 AUDIO
    TITLE "P1Q_t_0070-0079_01"
    INDEX 01 00:00:00
  TRACK 02 AUDIO
    TITLE "P1Q_t_0070-0079_02"
    INDEX 01 00:01:37
  TRACK 03 AUDIO
    TITLE "P1Q_t_0070-0079_03"
    INDEX 01 00:01:57
  TRACK 04 AUDIO
    TITLE "P1Q_t_0070-0079_04"
    INDEX 01 00:03:34
  TRACK 05 AUDIO
    TITLE "P1Q_t_0070-0079_05"
    INDEX 01 00:03:54
  TRACK 06 AUDIO
    TITLE "P1Q_t_0070-0079_06"
    INDEX 01 00:08:53
  TRACK 07 AUDIO
    TITLE "P1Q_t_0070-0079_07"
    INDEX 01 00:09:25
  TRACK 08 AUDIO
    TITLE "P1Q_t_0070-0079_08"
    INDEX 01 00:10:40
  TRACK 09 AUDIO
    TITLE "P1Q_t_0070-0079_09"
    INDEX 01 00:10:64
  TRACK 10 AUDIO
    TITLE "P1Q_t_0070-0079_10"
    INDEX 01 00:12:68
  TRACK 11 AUDIO
    TITLE "P1Q_t_0070-0079_11"
    INDEX 01 00:13:13
  TRACK 12 AUDIO
    TITLE "P1Q_t_0070-0079_12"
    INDEX 01 00:17:26
  TRACK 13 AUDIO
    TITLE "P1Q_t_0070-0079_13"
    INDEX 01 00:17:71
  TRACK 14 AUDIO
    TITLE "P1Q_t_0070-0079_14"
    INDEX 01 00:19:08
  TRACK 15 AUDIO
    TITLE "P1Q_t_0070-0079_15"
    INDEX 01 00:19:29
  TRACK 16 AUDIO
    TITLE "P1Q_t_0070-0079_16"
    INDEX 01 00:20:62
  TRACK 17 AUDIO
    TITLE "P1Q_t_0070-0079_17"
    INDEX 01 00:21:07
  TRACK 18 AUDIO
    TITLE "P1Q_t_0070-0079_18"
    INDEX 01 00:24:70
  TRACK 19 AUDIO
    TITLE "P1Q_t_0070-0079_19"
    INDEX 01 00:25:40
  TRACK 20 AUDIO
    TITLE "P1Q_t_0070-0079_20"
    INDEX 01 00:26:49
  TRACK 21 AUDIO
    TITLE "P1Q_t_0070-0079_21"
    INDEX 01 00:26:70
  TRACK 22 AUDIO
    TITLE "P1Q_t_0070-0079_22"
    INDEX 01 00:28:13
  TRACK 23 AUDIO
    TITLE "P1Q_t_0070-0079_23"
    INDEX 01 00:28:32
  TRACK 24 AUDIO
    TITLE "P1Q_t_0070-0079_24"
    INDEX 01 00:34:27
  TRACK 25 AUDIO
    TITLE "P1Q_t_0070-0079_25"
    INDEX 01 00:34:72
  TRACK 26 AUDIO
    TITLE "P1Q_t_0070-0079_26"
    INDEX 01 00:36:20
  TRACK 27 AUDIO
    TITLE "P1Q_t_0070-0079_27"
    INDEX 01 00:36:39
  TRACK 28 AUDIO
    TITLE "P1Q_t_0070-0079_28"
    INDEX 01 00:39:63
  TRACK 29 AUDIO
    TITLE "P1Q_t_0070-0079_29"
    INDEX 01 00:40:10
  TRACK 30 AUDIO
    TITLE "P1Q_t_0070-0079_30"
    INDEX 01 00:45:48
  TRACK 31 AUDIO
    TITLE "P1Q_t_0070-0079_31"
    INDEX 01 00:46:20
  TRACK 32 AUDIO
    TITLE "P1Q_t_0070-0079_32"
    INDEX 01 00:47:49
  TRACK 33 AUDIO
    TITLE "P1Q_t_0070-0079_33"
    INDEX 01 00:47:73
  TRACK 34 AUDIO
    TITLE "P1Q_t_0070-0079_34"
    INDEX 01 00:50:10
  TRACK 35 AUDIO
    TITLE "P1Q_t_0070-0079_35"
    INDEX 01 00:50:30
  TRACK 36 AUDIO
    TITLE "P1Q_t_0070-0079_36"
    INDEX 01 00:56:01
  TRACK 37 AUDIO
    TITLE "P1Q_t_0070-0079_37"
    INDEX 01 00:56:48
  TRACK 38 AUDIO
    TITLE "P1Q_t_0070-0079_38"
    INDEX 01 00:57:69
  TRACK 39 AUDIO
    TITLE "P1Q_t_0070-0079_39"
    INDEX 01 00:58:14
  TRACK 40 AUDIO
    TITLE "P1Q_t_0070-0079_40"
    INDEX 01 01:00:38
  TRACK 41 AUDIO
    TITLE "P1Q_t_0070-0079_41"
    INDEX 01 01:00:65
  TRACK 42 AUDIO
    TITLE "P1Q_t_0070-0079_42"
    INDEX 01 01:05:51
  TRACK 43 AUDIO
    TITLE "P1Q_t_0070-0079_43"
    INDEX 01 01:06:23
  TRACK 44 AUDIO
    TITLE "P1Q_t_0070-0079_44"
    INDEX 01 01:07:48
  TRACK 45 AUDIO
    TITLE "P1Q_t_0070-0079_45"
    INDEX 01 01:07:69
  TRACK 46 AUDIO
    TITLE "P1Q_t_0070-0079_46"
    INDEX 01 01:08:69
  TRACK 47 AUDIO
    TITLE "P1Q_t_0070-0079_47"
    INDEX 01 01:09:13
  TRACK 48 AUDIO
    TITLE "P1Q_t_0070-0079_48"
    INDEX 01 01:13:70
  TRACK 49 AUDIO
    TITLE "P1Q_t_0070-0079_49"
    INDEX 01 01:14:40
  TRACK 50 AUDIO
    TITLE "P1Q_t_0070-0079_50"
    INDEX 01 01:15:65
  TRACK 51 AUDIO
    TITLE "P1Q_t_0070-0079_51"
    INDEX 01 01:16:10
  TRACK 52 AUDIO
    TITLE "P1Q_t_0070-0079_52"
    INDEX 01 01:18:06
  TRACK 53 AUDIO
    TITLE "P1Q_t_0070-0079_53"
    INDEX 01 01:18:26
  TRACK 54 AUDIO
    TITLE "P1Q_t_0070-0079_54"
    INDEX 01 01:24:03
  TRACK 55 AUDIO
    TITLE "P1Q_t_0070-0079_55"
    INDEX 01 01:24:52
  TRACK 56 AUDIO
    TITLE "P1Q_t_0070-0079_56"
    INDEX 01 01:25:63
  TRACK 57 AUDIO
    TITLE "P1Q_t_0070-0079_57"
    INDEX 01 01:26:12
  TRACK 58 AUDIO
    TITLE "P1Q_t_0070-0079_58"
    INDEX 01 01:27:35
  TRACK 59 AUDIO
    TITLE "P1Q_t_0070-0079_59"
    INDEX 01 01:27:54
  TRACK 60 AUDIO
    TITLE "P1Q_t_0070-0079_60"
    INDEX 01 01:32:56
